<svg xmlns="http://www.w3.org/2000/svg" xmlns:xlink="http://www.w3.org/1999/xlink" width="200" zoomAndPan="magnify" viewBox="0 0 150 45.749998" height="61" preserveAspectRatio="xMidYMid meet" version="1.0"><defs><g/><clipPath id="93060b96dc"><path d="M 8 32 L 21 32 L 21 45.5 L 8 45.5 Z M 8 32 " clip-rule="nonzero"/></clipPath><clipPath id="925d254f00"><path d="M 0.40625 5 L 5 5 L 5 11 L 0.40625 11 Z M 0.40625 5 " clip-rule="nonzero"/></clipPath><clipPath id="95043957c1"><path d="M 8 0.0078125 L 11 0.0078125 L 11 7 L 8 7 Z M 8 0.0078125 " clip-rule="nonzero"/></clipPath><clipPath id="4306db7512"><path d="M 15 0.0078125 L 18 0.0078125 L 18 6 L 15 6 Z M 15 0.0078125 " clip-rule="nonzero"/></clipPath><clipPath id="db86ef17d0"><path d="M 27 8 L 31.738281 8 L 31.738281 12 L 27 12 Z M 27 8 " clip-rule="nonzero"/></clipPath></defs><path fill="#f9b347" d="M 3.625 19.617188 C 3.691406 16.710938 4.457031 12.808594 8.160156 10.183594 C 9.027344 9.566406 9.988281 9.089844 10.972656 8.691406 C 14.359375 7.332031 18.402344 6.898438 21.507812 8.824219 C 22.527344 9.457031 23.394531 10.3125 24.164062 11.238281 C 25.800781 13.207031 27.046875 15.5625 27.4375 18.101562 C 27.832031 20.640625 27.3125 23.367188 25.769531 25.410156 C 24.089844 27.632812 21.304688 28.980469 20.179688 31.53125 C 19.101562 33.96875 19.839844 36.855469 19.113281 39.421875 C 19.050781 39.644531 18.96875 39.878906 18.792969 40.03125 C 18.582031 40.21875 18.277344 40.25 17.996094 40.273438 C 17.027344 40.351562 16.058594 40.429688 15.089844 40.507812 C 9.019531 40.988281 10.425781 35.875 9.234375 31.699219 C 7.871094 26.929688 3.503906 24.785156 3.625 19.617188 Z M 3.625 19.617188 " fill-opacity="1" fill-rule="nonzero"/><g clip-path="url(#93060b96dc)"><path fill="#cadfdf" d="M 19.960938 32.847656 C 20.125 32.835938 20.320312 32.835938 20.425781 32.964844 C 20.5 33.050781 20.507812 33.175781 20.511719 33.289062 C 20.578125 34.984375 20.644531 36.675781 20.710938 38.367188 C 20.734375 38.921875 20.753906 39.492188 20.5625 40.011719 C 20.042969 41.433594 18.164062 41.980469 17.65625 43.40625 C 17.476562 43.917969 17.609375 43.71875 17.339844 44.183594 C 16.945312 44.875 16.078125 45.101562 15.296875 45.226562 C 14.457031 45.359375 13.570312 45.445312 12.773438 45.144531 C 12.460938 45.027344 12.144531 44.828125 12.039062 44.503906 C 11.9375 44.195312 12.058594 43.859375 12.046875 43.535156 C 12.027344 42.972656 11.5 43.273438 11.054688 42.929688 C 10.613281 42.589844 10.109375 42.320312 9.738281 41.898438 C 8.871094 40.921875 8.960938 39.457031 8.828125 38.152344 C 8.660156 36.519531 8.035156 33.671875 10.171875 32.976562 C 10.800781 32.769531 11.527344 33 12.160156 33.054688 C 13.304688 33.160156 14.476562 33.09375 15.621094 33.0625 C 17.070312 33.023438 18.515625 32.953125 19.960938 32.847656 Z M 19.960938 32.847656 " fill-opacity="1" fill-rule="nonzero"/></g><path stroke-linecap="round" transform="matrix(0.173856, 0, 0, 0.175498, -20.907101, -14.349259)" fill="none" stroke-linejoin="round" d="M 197.119667 267.529244 C 197.613971 251.815025 190.850999 236.924356 184.492458 222.545623 C 183.144358 219.496264 182.178219 215.133676 185.099104 213.508835 C 186.739293 212.573994 188.918722 213.197221 190.311759 214.465933 C 191.727265 215.734645 192.536125 217.515293 193.300049 219.229166 C 194.041504 220.854008 195.232326 222.745946 197.007325 222.59014 C 197.816186 222.501107 198.512704 221.966913 199.164286 221.432718 C 201.770614 219.229166 204.12979 216.736259 206.129472 213.976255 C 207.79213 216.068516 209.499724 218.205294 211.836431 219.451747 C 214.173139 220.720459 217.318707 220.898524 219.31839 219.140134 C 220.351933 218.205294 221.048452 216.803033 222.351616 216.313355 C 224.373767 215.55658 226.575664 217.626583 226.800348 219.785619 C 227.002563 221.944655 225.901614 223.970142 224.845602 225.86208 C 217.655732 238.615972 210.106369 252.638575 212.465545 267.084082 " stroke="#144778" stroke-width="5" stroke-opacity="1" stroke-miterlimit="10"/><g clip-path="url(#925d254f00)"><path stroke-linecap="round" transform="matrix(0.173856, 0, 0, 0.175498, -20.907101, -14.349259)" fill="none" stroke-linejoin="round" d="M 144.903239 139.879038 C 143.80229 137.297099 141.914949 135.138063 140.027608 133.06806 C 135.219383 127.770632 130.276347 122.584494 125.243439 117.509647 C 125.872552 117.420615 126.569071 117.576422 127.085843 117.954809 " stroke="#144778" stroke-width="5" stroke-opacity="1" stroke-miterlimit="10"/></g><g clip-path="url(#95043957c1)"><path stroke-linecap="round" transform="matrix(0.173856, 0, 0, 0.175498, -20.907101, -14.349259)" fill="none" stroke-linejoin="round" d="M 178.336132 116.419 C 178.740563 116.174161 178.673158 115.550934 178.538348 115.083514 C 175.79721 106.068984 170.517149 97.722196 169.753226 88.351536 " stroke="#144778" stroke-width="5" stroke-opacity="1" stroke-miterlimit="10"/></g><g clip-path="url(#4306db7512)"><path stroke-linecap="round" transform="matrix(0.173856, 0, 0, 0.175498, -20.907101, -14.349259)" fill="none" stroke-linejoin="round" d="M 214.420291 109.919635 C 213.970924 101.439299 215.498771 92.847672 218.869023 85.035079 " stroke="#144778" stroke-width="5" stroke-opacity="1" stroke-miterlimit="10"/></g><path stroke-linecap="round" transform="matrix(0.173856, 0, 0, 0.175498, -20.907101, -14.349259)" fill="none" stroke-linejoin="round" d="M 253.942106 122.762559 C 258.031344 114.949966 262.390203 107.270921 266.996213 99.725425 C 267.58039 100.437684 267.760136 101.461557 267.44558 102.329623 " stroke="#144778" stroke-width="5" stroke-opacity="1" stroke-miterlimit="10"/><g clip-path="url(#db86ef17d0)"><path stroke-linecap="round" transform="matrix(0.173856, 0, 0, 0.175498, -20.907101, -14.349259)" fill="none" stroke-linejoin="round" d="M 279.10665 144.731304 C 278.949371 145.087434 279.600953 145.109692 279.91551 144.909369 C 286.858228 140.279684 293.531326 135.316128 299.957272 130.040958 " stroke="#144778" stroke-width="5" stroke-opacity="1" stroke-miterlimit="10"/></g><path stroke-linecap="round" transform="matrix(0.173856, 0, 0, 0.175498, -20.907101, -14.349259)" fill="none" stroke-linejoin="round" d="M 174.696261 310.776733 C 181.324422 312.178994 188.222203 313.558996 194.805428 312.000929 " stroke="#144778" stroke-width="5" stroke-opacity="1" stroke-miterlimit="10"/><path stroke-linecap="round" transform="matrix(0.173856, 0, 0, 0.175498, -20.907101, -14.349259)" fill="none" stroke-linejoin="round" d="M 175.100691 298.267681 C 178.560816 298.690585 182.043409 299.113489 185.503534 299.536393 " stroke="#144778" stroke-width="5" stroke-opacity="1" stroke-miterlimit="10"/><path stroke-linecap="round" transform="matrix(0.173856, 0, 0, 0.175498, -20.907101, -14.349259)" fill="none" stroke-linejoin="round" d="M 215.92567 299.647683 C 218.442124 299.491877 220.981047 299.313812 223.51997 299.158005 C 227.496866 298.890908 231.608573 298.601553 235.068698 296.64284 " stroke="#144778" stroke-width="5" stroke-opacity="1" stroke-miterlimit="10"/><path stroke-linecap="round" transform="matrix(0.173856, 0, 0, 0.175498, -20.907101, -14.349259)" fill="none" stroke-linejoin="round" d="M 218.217441 314.560611 C 221.610161 312.824479 225.317437 311.689316 229.114587 311.28867 " stroke="#144778" stroke-width="5" stroke-opacity="1" stroke-miterlimit="10"/><g fill="#00b1ba" fill-opacity="1"><g transform="translate(38.511274, 27.37997)"><g><path d="M 5.203125 -0.1875 C 4.378906 -0.1875 3.71875 -0.320312 3.21875 -0.59375 C 2.71875 -0.875 2.34375 -1.257812 2.09375 -1.75 C 1.84375 -2.238281 1.679688 -2.804688 1.609375 -3.453125 C 1.535156 -4.097656 1.507812 -4.796875 1.53125 -5.546875 C 1.332031 -5.703125 1.1875 -5.847656 1.09375 -5.984375 C 1 -6.128906 0.953125 -6.34375 0.953125 -6.625 C 0.953125 -6.90625 1.007812 -7.101562 1.125 -7.21875 C 1.25 -7.34375 1.394531 -7.453125 1.5625 -7.546875 C 1.726562 -7.640625 1.867188 -7.773438 1.984375 -7.953125 C 2.023438 -7.992188 2.0625 -8.0625 2.09375 -8.15625 C 2.132812 -8.25 2.160156 -8.332031 2.171875 -8.40625 C 2.273438 -8.675781 2.34375 -8.953125 2.375 -9.234375 C 2.40625 -9.523438 2.457031 -9.8125 2.53125 -10.09375 L 2.53125 -10.1875 C 2.53125 -10.195312 2.472656 -10.226562 2.359375 -10.28125 C 2.117188 -10.375 1.867188 -10.484375 1.609375 -10.609375 C 1.359375 -10.734375 1.234375 -10.96875 1.234375 -11.3125 C 1.234375 -11.707031 1.34375 -11.988281 1.5625 -12.15625 C 1.78125 -12.320312 2.054688 -12.429688 2.390625 -12.484375 C 3.203125 -12.617188 3.976562 -12.726562 4.71875 -12.8125 C 5.46875 -12.894531 6.253906 -12.9375 7.078125 -12.9375 C 7.316406 -12.9375 7.582031 -12.925781 7.875 -12.90625 C 8.164062 -12.882812 8.445312 -12.832031 8.71875 -12.75 C 8.988281 -12.664062 9.207031 -12.535156 9.375 -12.359375 C 9.550781 -12.191406 9.640625 -11.960938 9.640625 -11.671875 C 9.640625 -11.472656 9.566406 -11.273438 9.421875 -11.078125 C 9.285156 -10.890625 9.101562 -10.796875 8.875 -10.796875 L 5.859375 -10.796875 C 5.460938 -10.796875 5.148438 -10.644531 4.921875 -10.34375 C 4.703125 -10.050781 4.546875 -9.679688 4.453125 -9.234375 C 4.367188 -8.796875 4.316406 -8.367188 4.296875 -7.953125 C 4.734375 -7.960938 5.113281 -7.976562 5.4375 -8 C 5.757812 -8.03125 6.054688 -8.046875 6.328125 -8.046875 L 7.09375 -8.046875 C 7.78125 -7.835938 8.125 -7.425781 8.125 -6.8125 C 8.125 -6.507812 7.988281 -6.285156 7.71875 -6.140625 C 7.457031 -5.992188 7.117188 -5.894531 6.703125 -5.84375 C 6.285156 -5.800781 5.847656 -5.773438 5.390625 -5.765625 C 4.941406 -5.765625 4.53125 -5.75 4.15625 -5.71875 C 3.914062 -5.707031 3.765625 -5.597656 3.703125 -5.390625 C 3.640625 -5.191406 3.609375 -4.976562 3.609375 -4.75 C 3.609375 -4.644531 3.609375 -4.539062 3.609375 -4.4375 C 3.617188 -4.332031 3.625 -4.238281 3.625 -4.15625 C 3.625 -3.957031 3.632812 -3.734375 3.65625 -3.484375 C 3.6875 -3.234375 3.757812 -3.007812 3.875 -2.8125 C 3.988281 -2.625 4.175781 -2.492188 4.4375 -2.421875 L 5.296875 -2.421875 C 5.898438 -2.421875 6.492188 -2.492188 7.078125 -2.640625 C 7.671875 -2.796875 8.269531 -2.875 8.875 -2.875 C 9.207031 -2.875 9.445312 -2.8125 9.59375 -2.6875 C 9.75 -2.5625 9.828125 -2.300781 9.828125 -1.90625 C 9.828125 -1.476562 9.632812 -1.144531 9.25 -0.90625 C 8.875 -0.664062 8.4375 -0.5 7.9375 -0.40625 C 7.488281 -0.3125 7.035156 -0.25 6.578125 -0.21875 C 6.117188 -0.195312 5.660156 -0.1875 5.203125 -0.1875 Z M 5.203125 -0.1875 "/></g></g></g><g fill="#00b1ba" fill-opacity="1"><g transform="translate(49.456127, 27.37997)"><g><path d="M 2.46875 -0.375 C 2.144531 -0.375 1.90625 -0.46875 1.75 -0.65625 C 1.601562 -0.84375 1.507812 -1.070312 1.46875 -1.34375 C 1.425781 -1.613281 1.40625 -1.878906 1.40625 -2.140625 C 1.40625 -2.722656 1.421875 -3.304688 1.453125 -3.890625 C 1.484375 -4.472656 1.5 -5.035156 1.5 -5.578125 C 1.5 -6.140625 1.4375 -6.679688 1.3125 -7.203125 C 1.1875 -7.734375 1.125 -8.257812 1.125 -8.78125 L 1.125 -9.515625 C 1.238281 -9.785156 1.359375 -9.96875 1.484375 -10.0625 C 1.609375 -10.15625 1.78125 -10.203125 2 -10.203125 C 2.394531 -10.203125 2.679688 -10.078125 2.859375 -9.828125 C 3.035156 -9.585938 3.148438 -9.296875 3.203125 -8.953125 C 3.265625 -8.617188 3.3125 -8.3125 3.34375 -8.03125 C 3.351562 -7.894531 3.378906 -7.617188 3.421875 -7.203125 C 3.460938 -6.796875 3.492188 -6.414062 3.515625 -6.0625 L 3.59375 -6.0625 L 3.65625 -6.140625 C 3.90625 -6.492188 4.160156 -6.875 4.421875 -7.28125 C 4.691406 -7.6875 4.988281 -8.066406 5.3125 -8.421875 C 5.632812 -8.785156 5.992188 -9.078125 6.390625 -9.296875 C 6.785156 -9.523438 7.234375 -9.640625 7.734375 -9.640625 C 8.367188 -9.640625 8.90625 -9.457031 9.34375 -9.09375 C 9.789062 -8.726562 10.164062 -8.253906 10.46875 -7.671875 C 10.78125 -7.097656 11.03125 -6.472656 11.21875 -5.796875 C 11.40625 -5.117188 11.554688 -4.460938 11.671875 -3.828125 C 11.785156 -3.191406 11.890625 -2.644531 11.984375 -2.1875 L 11.984375 -1.71875 C 11.984375 -1.4375 11.90625 -1.160156 11.75 -0.890625 C 11.59375 -0.617188 11.351562 -0.484375 11.03125 -0.484375 C 10.6875 -0.484375 10.429688 -0.570312 10.265625 -0.75 C 10.109375 -0.925781 10.003906 -1.15625 9.953125 -1.4375 C 9.929688 -1.550781 9.898438 -1.738281 9.859375 -2 C 9.828125 -2.257812 9.785156 -2.539062 9.734375 -2.84375 C 9.679688 -3.15625 9.632812 -3.445312 9.59375 -3.71875 C 9.550781 -4 9.519531 -4.203125 9.5 -4.328125 C 9.457031 -4.585938 9.367188 -4.890625 9.234375 -5.234375 C 9.109375 -5.585938 8.988281 -5.890625 8.875 -6.140625 C 8.757812 -6.410156 8.613281 -6.691406 8.4375 -6.984375 C 8.257812 -7.273438 8 -7.421875 7.65625 -7.421875 C 7.34375 -7.421875 7.0625 -7.3125 6.8125 -7.09375 C 6.570312 -6.875 6.359375 -6.617188 6.171875 -6.328125 C 5.984375 -6.035156 5.820312 -5.773438 5.6875 -5.546875 C 5.363281 -5.035156 5.070312 -4.523438 4.8125 -4.015625 C 4.5625 -3.515625 4.289062 -2.960938 4 -2.359375 C 3.882812 -2.117188 3.773438 -1.84375 3.671875 -1.53125 C 3.578125 -1.21875 3.441406 -0.945312 3.265625 -0.71875 C 3.085938 -0.488281 2.820312 -0.375 2.46875 -0.375 Z M 2.46875 -0.375 "/></g></g></g><g fill="#00b1ba" fill-opacity="1"><g transform="translate(62.307754, 27.37997)"><g><path d="M 4.734375 5.375 C 4.359375 5.25 4.003906 5.082031 3.671875 4.875 C 3.335938 4.664062 3.0625 4.421875 2.84375 4.140625 C 2.632812 3.867188 2.53125 3.578125 2.53125 3.265625 C 2.53125 2.972656 2.632812 2.753906 2.84375 2.609375 C 3.0625 2.472656 3.289062 2.40625 3.53125 2.40625 C 3.8125 2.40625 4.039062 2.488281 4.21875 2.65625 C 4.40625 2.832031 4.601562 3.003906 4.8125 3.171875 C 5.019531 3.347656 5.28125 3.4375 5.59375 3.4375 C 5.957031 3.4375 6.28125 3.3125 6.5625 3.0625 C 6.84375 2.820312 7.078125 2.507812 7.265625 2.125 C 7.460938 1.75 7.613281 1.34375 7.71875 0.90625 C 7.820312 0.476562 7.878906 0.0703125 7.890625 -0.3125 C 7.910156 -0.394531 7.929688 -0.582031 7.953125 -0.875 C 7.984375 -1.175781 8.015625 -1.492188 8.046875 -1.828125 C 8.078125 -2.160156 8.09375 -2.40625 8.09375 -2.5625 L 8.09375 -2.75 C 8.09375 -2.851562 8.066406 -2.90625 8.015625 -2.90625 L 7.9375 -2.90625 C 7.550781 -2.457031 7.15625 -2 6.75 -1.53125 C 6.351562 -1.0625 5.90625 -0.671875 5.40625 -0.359375 C 4.914062 -0.046875 4.347656 0.109375 3.703125 0.109375 C 3.203125 0.109375 2.734375 -0.015625 2.296875 -0.265625 C 1.867188 -0.523438 1.519531 -0.867188 1.25 -1.296875 C 0.988281 -1.734375 0.859375 -2.21875 0.859375 -2.75 C 0.859375 -3.625 1.03125 -4.492188 1.375 -5.359375 C 1.71875 -6.234375 2.191406 -7.023438 2.796875 -7.734375 C 3.410156 -8.453125 4.117188 -9.023438 4.921875 -9.453125 C 5.734375 -9.890625 6.613281 -10.109375 7.5625 -10.109375 C 7.8125 -10.109375 8.078125 -10.0625 8.359375 -9.96875 C 8.640625 -9.882812 8.878906 -9.742188 9.078125 -9.546875 C 9.273438 -9.347656 9.375 -9.082031 9.375 -8.75 C 9.375 -8.457031 9.265625 -8.222656 9.046875 -8.046875 C 8.835938 -7.867188 8.585938 -7.78125 8.296875 -7.78125 C 8.097656 -7.78125 7.898438 -7.8125 7.703125 -7.875 C 7.503906 -7.9375 7.300781 -7.96875 7.09375 -7.96875 L 6.71875 -7.96875 C 6.019531 -7.769531 5.382812 -7.410156 4.8125 -6.890625 C 4.25 -6.378906 3.800781 -5.78125 3.46875 -5.09375 C 3.132812 -4.414062 2.96875 -3.726562 2.96875 -3.03125 L 2.96875 -2.390625 C 3.070312 -2.015625 3.285156 -1.828125 3.609375 -1.828125 C 3.898438 -1.828125 4.191406 -1.9375 4.484375 -2.15625 C 4.773438 -2.375 5.0625 -2.644531 5.34375 -2.96875 C 5.625 -3.289062 5.882812 -3.613281 6.125 -3.9375 C 6.363281 -4.257812 6.585938 -4.53125 6.796875 -4.75 C 6.984375 -5.082031 7.195312 -5.394531 7.4375 -5.6875 C 7.675781 -5.988281 7.898438 -6.304688 8.109375 -6.640625 C 8.242188 -6.816406 8.375 -6.9375 8.5 -7 C 8.632812 -7.0625 8.789062 -7.09375 8.96875 -7.09375 C 9.28125 -7.09375 9.507812 -7.003906 9.65625 -6.828125 C 9.800781 -6.660156 9.90625 -6.445312 9.96875 -6.1875 C 10.039062 -5.9375 10.085938 -5.695312 10.109375 -5.46875 L 10.109375 -4.046875 C 10.109375 -3.523438 10.09375 -2.929688 10.0625 -2.265625 C 10.03125 -1.609375 9.96875 -0.925781 9.875 -0.21875 C 9.78125 0.488281 9.628906 1.171875 9.421875 1.828125 C 9.222656 2.492188 8.953125 3.09375 8.609375 3.625 C 8.273438 4.15625 7.851562 4.578125 7.34375 4.890625 C 6.832031 5.210938 6.21875 5.375 5.5 5.375 Z M 4.734375 5.375 "/></g></g></g><g fill="#00b1ba" fill-opacity="1"><g transform="translate(73.443288, 27.37997)"><g><path d="M 2.765625 0.09375 C 2.472656 0.09375 2.253906 -0.00390625 2.109375 -0.203125 C 1.960938 -0.398438 1.863281 -0.644531 1.8125 -0.9375 C 1.769531 -1.226562 1.75 -1.523438 1.75 -1.828125 C 1.75 -1.984375 1.753906 -2.132812 1.765625 -2.28125 C 1.773438 -2.425781 1.78125 -2.5625 1.78125 -2.6875 C 1.78125 -2.988281 1.785156 -3.457031 1.796875 -4.09375 C 1.804688 -4.738281 1.820312 -5.46875 1.84375 -6.28125 C 1.875 -7.101562 1.90625 -7.957031 1.9375 -8.84375 C 1.976562 -9.738281 2.035156 -10.597656 2.109375 -11.421875 C 2.179688 -12.253906 2.257812 -12.984375 2.34375 -13.609375 C 2.4375 -14.179688 2.597656 -14.632812 2.828125 -14.96875 C 3.066406 -15.3125 3.304688 -15.484375 3.546875 -15.484375 C 3.765625 -15.484375 3.945312 -15.3125 4.09375 -14.96875 C 4.25 -14.632812 4.3125 -14.070312 4.28125 -13.28125 C 4.03125 -11.8125 3.847656 -10.394531 3.734375 -9.03125 C 3.617188 -7.675781 3.5625 -6.273438 3.5625 -4.828125 C 3.5625 -4.210938 3.59375 -3.597656 3.65625 -2.984375 C 3.726562 -2.378906 3.765625 -1.769531 3.765625 -1.15625 C 3.765625 -0.769531 3.679688 -0.460938 3.515625 -0.234375 C 3.347656 -0.015625 3.097656 0.09375 2.765625 0.09375 Z M 2.765625 0.09375 "/></g></g></g><g fill="#00b1ba" fill-opacity="1"><g transform="translate(78.419953, 27.37997)"><g><path d="M 3.140625 -11.75 C 2.765625 -11.75 2.4375 -11.867188 2.15625 -12.109375 C 1.875 -12.359375 1.734375 -12.71875 1.734375 -13.1875 C 1.734375 -13.65625 1.898438 -13.984375 2.234375 -14.171875 C 2.566406 -14.367188 2.90625 -14.46875 3.25 -14.46875 C 3.632812 -14.46875 3.960938 -14.34375 4.234375 -14.09375 C 4.515625 -13.851562 4.65625 -13.492188 4.65625 -13.015625 C 4.65625 -12.554688 4.492188 -12.226562 4.171875 -12.03125 C 3.847656 -11.84375 3.503906 -11.75 3.140625 -11.75 Z M 2.390625 -0.28125 C 2.140625 -0.28125 1.953125 -0.40625 1.828125 -0.65625 C 1.703125 -0.914062 1.609375 -1.175781 1.546875 -1.4375 L 1.546875 -3.890625 C 1.546875 -3.953125 1.5625 -4.117188 1.59375 -4.390625 C 1.625 -4.671875 1.660156 -5 1.703125 -5.375 C 1.753906 -5.75 1.800781 -6.109375 1.84375 -6.453125 C 1.882812 -6.804688 1.921875 -7.082031 1.953125 -7.28125 C 1.984375 -7.539062 2.023438 -7.820312 2.078125 -8.125 C 2.140625 -8.425781 2.242188 -8.691406 2.390625 -8.921875 C 2.546875 -9.148438 2.765625 -9.265625 3.046875 -9.265625 C 3.359375 -9.265625 3.578125 -9.191406 3.703125 -9.046875 C 3.835938 -8.898438 3.914062 -8.71875 3.9375 -8.5 C 3.96875 -8.289062 3.984375 -8.070312 3.984375 -7.84375 L 3.984375 -7.171875 C 3.984375 -7.148438 3.976562 -7.097656 3.96875 -7.015625 C 3.957031 -6.929688 3.9375 -6.835938 3.90625 -6.734375 C 3.820312 -6.285156 3.753906 -5.957031 3.703125 -5.75 C 3.660156 -5.539062 3.628906 -5.363281 3.609375 -5.21875 C 3.597656 -5.070312 3.59375 -4.867188 3.59375 -4.609375 C 3.59375 -4.460938 3.59375 -4.273438 3.59375 -4.046875 C 3.601562 -3.816406 3.609375 -3.515625 3.609375 -3.140625 C 3.609375 -2.984375 3.613281 -2.820312 3.625 -2.65625 C 3.632812 -2.5 3.640625 -2.332031 3.640625 -2.15625 C 3.640625 -1.96875 3.625 -1.765625 3.59375 -1.546875 C 3.539062 -1.222656 3.421875 -0.929688 3.234375 -0.671875 C 3.054688 -0.410156 2.773438 -0.28125 2.390625 -0.28125 Z M 2.390625 -0.28125 "/></g></g></g><g fill="#00b1ba" fill-opacity="1"><g transform="translate(83.415694, 27.37997)"><g><path d="M 4.75 0.28125 C 4.394531 0.28125 3.988281 0.25 3.53125 0.1875 C 3.070312 0.132812 2.625 0.0351562 2.1875 -0.109375 C 1.757812 -0.265625 1.398438 -0.492188 1.109375 -0.796875 C 0.828125 -1.109375 0.6875 -1.507812 0.6875 -2 C 0.6875 -2.332031 0.769531 -2.625 0.9375 -2.875 C 1.101562 -3.125 1.367188 -3.25 1.734375 -3.25 C 1.960938 -3.25 2.140625 -3.191406 2.265625 -3.078125 C 2.398438 -2.960938 2.515625 -2.820312 2.609375 -2.65625 C 2.703125 -2.488281 2.8125 -2.316406 2.9375 -2.140625 C 3.070312 -1.972656 3.257812 -1.832031 3.5 -1.71875 C 3.738281 -1.601562 4.0625 -1.546875 4.46875 -1.546875 C 4.757812 -1.546875 5.078125 -1.578125 5.421875 -1.640625 C 5.773438 -1.710938 6.078125 -1.84375 6.328125 -2.03125 C 6.585938 -2.226562 6.71875 -2.492188 6.71875 -2.828125 C 6.71875 -3.117188 6.59375 -3.347656 6.34375 -3.515625 C 6.101562 -3.691406 5.789062 -3.84375 5.40625 -3.96875 C 5.03125 -4.09375 4.632812 -4.222656 4.21875 -4.359375 C 3.800781 -4.492188 3.398438 -4.660156 3.015625 -4.859375 C 2.628906 -5.066406 2.316406 -5.335938 2.078125 -5.671875 C 1.835938 -6.015625 1.71875 -6.453125 1.71875 -6.984375 C 1.71875 -7.484375 1.835938 -7.910156 2.078125 -8.265625 C 2.316406 -8.617188 2.628906 -8.910156 3.015625 -9.140625 C 3.410156 -9.378906 3.832031 -9.550781 4.28125 -9.65625 C 4.726562 -9.769531 5.164062 -9.828125 5.59375 -9.828125 C 5.832031 -9.828125 6.109375 -9.796875 6.421875 -9.734375 C 6.742188 -9.679688 7.054688 -9.585938 7.359375 -9.453125 C 7.671875 -9.328125 7.925781 -9.15625 8.125 -8.9375 C 8.332031 -8.71875 8.4375 -8.441406 8.4375 -8.109375 C 8.4375 -7.523438 8.144531 -7.234375 7.5625 -7.234375 L 7.3125 -7.234375 C 6.925781 -7.453125 6.597656 -7.613281 6.328125 -7.71875 C 6.066406 -7.832031 5.765625 -7.890625 5.421875 -7.890625 C 5.265625 -7.890625 5.050781 -7.875 4.78125 -7.84375 C 4.507812 -7.8125 4.265625 -7.738281 4.046875 -7.625 C 3.828125 -7.507812 3.71875 -7.328125 3.71875 -7.078125 C 3.71875 -6.859375 3.835938 -6.675781 4.078125 -6.53125 C 4.316406 -6.394531 4.628906 -6.265625 5.015625 -6.140625 C 5.398438 -6.015625 5.800781 -5.875 6.21875 -5.71875 C 6.632812 -5.570312 7.035156 -5.378906 7.421875 -5.140625 C 7.804688 -4.898438 8.117188 -4.601562 8.359375 -4.25 C 8.597656 -3.894531 8.71875 -3.453125 8.71875 -2.921875 C 8.71875 -2.140625 8.523438 -1.515625 8.140625 -1.046875 C 7.753906 -0.578125 7.257812 -0.238281 6.65625 -0.03125 C 6.050781 0.175781 5.414062 0.28125 4.75 0.28125 Z M 4.75 0.28125 "/></g></g></g><g fill="#00b1ba" fill-opacity="1"><g transform="translate(93.00675, 27.37997)"><g><path d="M 2.171875 -0.09375 C 1.816406 -0.09375 1.550781 -0.21875 1.375 -0.46875 C 1.207031 -0.71875 1.125 -1.003906 1.125 -1.328125 C 1.125 -2.097656 1.171875 -2.875 1.265625 -3.65625 C 1.359375 -4.445312 1.40625 -5.210938 1.40625 -5.953125 C 1.40625 -7.222656 1.359375 -8.460938 1.265625 -9.671875 C 1.171875 -10.878906 1.125 -12.117188 1.125 -13.390625 L 1.125 -13.890625 C 1.21875 -14.085938 1.34375 -14.226562 1.5 -14.3125 C 1.65625 -14.394531 1.820312 -14.4375 2 -14.4375 C 2.289062 -14.4375 2.53125 -14.332031 2.71875 -14.125 C 2.90625 -13.925781 3.046875 -13.679688 3.140625 -13.390625 C 3.242188 -13.097656 3.316406 -12.804688 3.359375 -12.515625 C 3.410156 -12.222656 3.4375 -11.984375 3.4375 -11.796875 L 3.4375 -5.453125 L 3.546875 -5.34375 L 3.5625 -5.359375 C 3.90625 -5.703125 4.234375 -6.085938 4.546875 -6.515625 C 4.859375 -6.953125 5.179688 -7.367188 5.515625 -7.765625 C 5.859375 -8.171875 6.234375 -8.503906 6.640625 -8.765625 C 7.054688 -9.035156 7.539062 -9.171875 8.09375 -9.171875 C 8.570312 -9.171875 8.984375 -9.039062 9.328125 -8.78125 C 9.679688 -8.53125 9.957031 -8.203125 10.15625 -7.796875 C 10.363281 -7.390625 10.5 -6.96875 10.5625 -6.53125 L 11.140625 -2.484375 L 11.140625 -1.90625 C 11.140625 -1.707031 11.125 -1.492188 11.09375 -1.265625 C 11.070312 -1.046875 11 -0.859375 10.875 -0.703125 C 10.757812 -0.554688 10.554688 -0.484375 10.265625 -0.484375 C 9.929688 -0.484375 9.671875 -0.613281 9.484375 -0.875 C 9.304688 -1.132812 9.175781 -1.453125 9.09375 -1.828125 C 9.019531 -2.210938 8.96875 -2.585938 8.9375 -2.953125 C 8.914062 -3.328125 8.894531 -3.617188 8.875 -3.828125 C 8.863281 -3.921875 8.847656 -4.085938 8.828125 -4.328125 C 8.804688 -4.566406 8.773438 -4.84375 8.734375 -5.15625 C 8.703125 -5.476562 8.648438 -5.789062 8.578125 -6.09375 C 8.515625 -6.394531 8.4375 -6.644531 8.34375 -6.84375 C 8.25 -7.039062 8.132812 -7.140625 8 -7.140625 C 7.78125 -7.140625 7.5625 -7.046875 7.34375 -6.859375 C 7.125 -6.679688 6.945312 -6.5 6.8125 -6.3125 C 6.144531 -5.445312 5.507812 -4.535156 4.90625 -3.578125 C 4.300781 -2.617188 3.703125 -1.679688 3.109375 -0.765625 C 3.003906 -0.597656 2.875 -0.441406 2.71875 -0.296875 C 2.570312 -0.160156 2.390625 -0.09375 2.171875 -0.09375 Z M 2.171875 -0.09375 "/></g></g></g><g fill="#00b1ba" fill-opacity="1"><g transform="translate(104.80965, 27.37997)"><g/></g></g><g fill="#00b1ba" fill-opacity="1"><g transform="translate(112.265121, 27.37997)"><g><path d="M 3.046875 -0.1875 C 2.859375 -0.1875 2.664062 -0.242188 2.46875 -0.359375 C 2.28125 -0.484375 2.148438 -0.648438 2.078125 -0.859375 L 2.078125 -1.453125 C 2.078125 -1.796875 2.132812 -2.128906 2.25 -2.453125 C 2.363281 -2.785156 2.425781 -3.125 2.4375 -3.46875 C 2.175781 -3.46875 1.90625 -3.476562 1.625 -3.5 C 1.351562 -3.519531 1.125 -3.601562 0.9375 -3.75 C 0.757812 -3.894531 0.671875 -4.160156 0.671875 -4.546875 C 0.671875 -4.921875 0.769531 -5.1875 0.96875 -5.34375 C 1.164062 -5.5 1.410156 -5.59375 1.703125 -5.625 C 1.992188 -5.664062 2.273438 -5.695312 2.546875 -5.71875 C 2.828125 -5.75 3.050781 -5.832031 3.21875 -5.96875 L 3.515625 -6.25 C 3.609375 -6.414062 3.675781 -6.597656 3.71875 -6.796875 C 3.757812 -7.003906 3.835938 -7.191406 3.953125 -7.359375 C 4.023438 -7.523438 4.144531 -7.78125 4.3125 -8.125 C 4.488281 -8.46875 4.671875 -8.835938 4.859375 -9.234375 C 5.054688 -9.628906 5.234375 -9.984375 5.390625 -10.296875 C 5.554688 -10.617188 5.675781 -10.835938 5.75 -10.953125 C 5.875 -11.171875 6.035156 -11.429688 6.234375 -11.734375 C 6.429688 -12.046875 6.660156 -12.320312 6.921875 -12.5625 C 7.179688 -12.8125 7.453125 -12.9375 7.734375 -12.9375 C 8.148438 -12.9375 8.488281 -12.8125 8.75 -12.5625 C 9.007812 -12.3125 9.222656 -12.007812 9.390625 -11.65625 C 9.554688 -11.3125 9.707031 -10.988281 9.84375 -10.6875 C 10.457031 -9.320312 11.007812 -7.898438 11.5 -6.421875 C 11.988281 -4.953125 12.378906 -3.476562 12.671875 -2 L 12.671875 -1.71875 C 12.671875 -1.476562 12.582031 -1.226562 12.40625 -0.96875 C 12.238281 -0.707031 12.035156 -0.578125 11.796875 -0.578125 C 11.429688 -0.578125 11.15625 -0.671875 10.96875 -0.859375 C 10.78125 -1.046875 10.640625 -1.285156 10.546875 -1.578125 C 10.460938 -1.867188 10.394531 -2.171875 10.34375 -2.484375 C 10.300781 -2.804688 10.238281 -3.097656 10.15625 -3.359375 C 10.082031 -3.628906 9.957031 -3.828125 9.78125 -3.953125 L 8.109375 -3.953125 C 7.921875 -3.953125 7.71875 -3.953125 7.5 -3.953125 C 7.28125 -3.960938 7.0625 -3.96875 6.84375 -3.96875 C 6.582031 -3.96875 6.320312 -3.953125 6.0625 -3.921875 C 5.800781 -3.898438 5.554688 -3.847656 5.328125 -3.765625 C 5.035156 -3.660156 4.820312 -3.46875 4.6875 -3.1875 C 4.5625 -2.914062 4.46875 -2.613281 4.40625 -2.28125 C 4.34375 -1.945312 4.269531 -1.617188 4.1875 -1.296875 C 4.113281 -0.984375 3.992188 -0.71875 3.828125 -0.5 C 3.671875 -0.289062 3.410156 -0.1875 3.046875 -0.1875 Z M 5.953125 -6.078125 L 6.421875 -6.078125 C 6.859375 -6.078125 7.265625 -6.082031 7.640625 -6.09375 C 8.015625 -6.101562 8.515625 -6.125 9.140625 -6.15625 L 9.140625 -6.328125 C 9.140625 -6.472656 9.125 -6.609375 9.09375 -6.734375 C 9.0625 -6.867188 9.015625 -7.007812 8.953125 -7.15625 C 8.859375 -7.4375 8.734375 -7.769531 8.578125 -8.15625 C 8.429688 -8.539062 8.285156 -8.898438 8.140625 -9.234375 C 8.003906 -9.578125 7.90625 -9.8125 7.84375 -9.9375 C 7.832031 -9.945312 7.796875 -9.953125 7.734375 -9.953125 L 7.671875 -9.953125 C 7.578125 -9.828125 7.5 -9.691406 7.4375 -9.546875 C 7.382812 -9.398438 7.3125 -9.265625 7.21875 -9.140625 C 7.164062 -9.015625 7.078125 -8.828125 6.953125 -8.578125 C 6.828125 -8.328125 6.695312 -8.054688 6.5625 -7.765625 C 6.425781 -7.484375 6.296875 -7.210938 6.171875 -6.953125 C 6.046875 -6.691406 5.953125 -6.484375 5.890625 -6.328125 L 5.890625 -6.234375 C 5.890625 -6.128906 5.910156 -6.078125 5.953125 -6.078125 Z M 5.953125 -6.078125 "/></g></g></g><g fill="#00b1ba" fill-opacity="1"><g transform="translate(125.955731, 27.37997)"><g><path d="M 2.265625 5.375 C 2.066406 5.375 1.898438 5.316406 1.765625 5.203125 C 1.640625 5.085938 1.519531 4.914062 1.40625 4.6875 L 1.40625 3.375 C 1.40625 2.144531 1.484375 0.929688 1.640625 -0.265625 C 1.804688 -1.460938 1.890625 -2.695312 1.890625 -3.96875 L 1.890625 -6.015625 C 1.796875 -6.148438 1.6875 -6.253906 1.5625 -6.328125 C 1.445312 -6.410156 1.34375 -6.5 1.25 -6.59375 C 1.164062 -6.695312 1.125 -6.851562 1.125 -7.0625 C 1.125 -7.300781 1.15625 -7.488281 1.21875 -7.625 C 1.289062 -7.769531 1.484375 -8 1.796875 -8.3125 L 1.796875 -10.265625 C 1.796875 -10.460938 1.910156 -10.625 2.140625 -10.75 C 2.378906 -10.882812 2.582031 -10.953125 2.75 -10.953125 C 2.96875 -10.953125 3.132812 -10.890625 3.25 -10.765625 C 3.363281 -10.648438 3.453125 -10.507812 3.515625 -10.34375 C 3.578125 -10.175781 3.632812 -10.03125 3.6875 -9.90625 C 3.738281 -9.789062 3.804688 -9.734375 3.890625 -9.734375 C 4.015625 -9.734375 4.148438 -9.769531 4.296875 -9.84375 C 4.441406 -9.914062 4.582031 -9.972656 4.71875 -10.015625 C 4.8125 -10.054688 4.941406 -10.097656 5.109375 -10.140625 C 5.273438 -10.179688 5.429688 -10.21875 5.578125 -10.25 C 5.734375 -10.28125 5.828125 -10.296875 5.859375 -10.296875 L 6.703125 -10.296875 C 7.484375 -10.296875 8.21875 -10.160156 8.90625 -9.890625 C 9.59375 -9.617188 10.148438 -9.203125 10.578125 -8.640625 C 11.015625 -8.078125 11.234375 -7.363281 11.234375 -6.5 C 11.234375 -5.738281 11.082031 -4.976562 10.78125 -4.21875 C 10.476562 -3.46875 10.054688 -2.773438 9.515625 -2.140625 C 8.984375 -1.515625 8.367188 -1.015625 7.671875 -0.640625 C 6.984375 -0.265625 6.25 -0.078125 5.46875 -0.078125 C 5.226562 -0.078125 4.984375 -0.109375 4.734375 -0.171875 C 4.492188 -0.234375 4.242188 -0.265625 3.984375 -0.265625 L 3.8125 -0.265625 C 3.800781 0.046875 3.78125 0.398438 3.75 0.796875 C 3.71875 1.203125 3.6875 1.570312 3.65625 1.90625 C 3.632812 2.238281 3.625 2.472656 3.625 2.609375 C 3.625 2.660156 3.617188 2.707031 3.609375 2.75 L 3.59375 2.859375 C 3.5625 3.035156 3.53125 3.21875 3.5 3.40625 C 3.46875 3.59375 3.445312 3.773438 3.4375 3.953125 C 3.394531 4.140625 3.332031 4.34375 3.25 4.5625 C 3.164062 4.789062 3.046875 4.984375 2.890625 5.140625 C 2.734375 5.296875 2.523438 5.375 2.265625 5.375 Z M 5.375 -2.125 C 5.894531 -2.125 6.382812 -2.253906 6.84375 -2.515625 C 7.300781 -2.773438 7.707031 -3.113281 8.0625 -3.53125 C 8.425781 -3.957031 8.707031 -4.421875 8.90625 -4.921875 C 9.113281 -5.429688 9.21875 -5.925781 9.21875 -6.40625 C 9.21875 -7.09375 8.976562 -7.585938 8.5 -7.890625 C 8.019531 -8.203125 7.453125 -8.359375 6.796875 -8.359375 C 6.546875 -8.359375 6.3125 -8.347656 6.09375 -8.328125 C 5.882812 -8.304688 5.6875 -8.253906 5.5 -8.171875 C 4.789062 -7.859375 4.34375 -7.515625 4.15625 -7.140625 C 3.96875 -6.765625 3.875 -6.332031 3.875 -5.84375 C 3.875 -5.632812 3.878906 -5.410156 3.890625 -5.171875 C 3.898438 -4.941406 3.90625 -4.695312 3.90625 -4.4375 L 3.90625 -2.9375 C 3.90625 -2.71875 3.988281 -2.546875 4.15625 -2.421875 C 4.320312 -2.304688 4.519531 -2.226562 4.75 -2.1875 C 4.988281 -2.144531 5.195312 -2.125 5.375 -2.125 Z M 5.375 -2.125 "/></g></g></g><g fill="#00b1ba" fill-opacity="1"><g transform="translate(137.75863, 27.37997)"><g><path d="M 2.265625 5.375 C 2.066406 5.375 1.898438 5.316406 1.765625 5.203125 C 1.640625 5.085938 1.519531 4.914062 1.40625 4.6875 L 1.40625 3.375 C 1.40625 2.144531 1.484375 0.929688 1.640625 -0.265625 C 1.804688 -1.460938 1.890625 -2.695312 1.890625 -3.96875 L 1.890625 -6.015625 C 1.796875 -6.148438 1.6875 -6.253906 1.5625 -6.328125 C 1.445312 -6.410156 1.34375 -6.5 1.25 -6.59375 C 1.164062 -6.695312 1.125 -6.851562 1.125 -7.0625 C 1.125 -7.300781 1.15625 -7.488281 1.21875 -7.625 C 1.289062 -7.769531 1.484375 -8 1.796875 -8.3125 L 1.796875 -10.265625 C 1.796875 -10.460938 1.910156 -10.625 2.140625 -10.75 C 2.378906 -10.882812 2.582031 -10.953125 2.75 -10.953125 C 2.96875 -10.953125 3.132812 -10.890625 3.25 -10.765625 C 3.363281 -10.648438 3.453125 -10.507812 3.515625 -10.34375 C 3.578125 -10.175781 3.632812 -10.03125 3.6875 -9.90625 C 3.738281 -9.789062 3.804688 -9.734375 3.890625 -9.734375 C 4.015625 -9.734375 4.148438 -9.769531 4.296875 -9.84375 C 4.441406 -9.914062 4.582031 -9.972656 4.71875 -10.015625 C 4.8125 -10.054688 4.941406 -10.097656 5.109375 -10.140625 C 5.273438 -10.179688 5.429688 -10.21875 5.578125 -10.25 C 5.734375 -10.28125 5.828125 -10.296875 5.859375 -10.296875 L 6.703125 -10.296875 C 7.484375 -10.296875 8.21875 -10.160156 8.90625 -9.890625 C 9.59375 -9.617188 10.148438 -9.203125 10.578125 -8.640625 C 11.015625 -8.078125 11.234375 -7.363281 11.234375 -6.5 C 11.234375 -5.738281 11.082031 -4.976562 10.78125 -4.21875 C 10.476562 -3.46875 10.054688 -2.773438 9.515625 -2.140625 C 8.984375 -1.515625 8.367188 -1.015625 7.671875 -0.640625 C 6.984375 -0.265625 6.25 -0.078125 5.46875 -0.078125 C 5.226562 -0.078125 4.984375 -0.109375 4.734375 -0.171875 C 4.492188 -0.234375 4.242188 -0.265625 3.984375 -0.265625 L 3.8125 -0.265625 C 3.800781 0.046875 3.78125 0.398438 3.75 0.796875 C 3.71875 1.203125 3.6875 1.570312 3.65625 1.90625 C 3.632812 2.238281 3.625 2.472656 3.625 2.609375 C 3.625 2.660156 3.617188 2.707031 3.609375 2.75 L 3.59375 2.859375 C 3.5625 3.035156 3.53125 3.21875 3.5 3.40625 C 3.46875 3.59375 3.445312 3.773438 3.4375 3.953125 C 3.394531 4.140625 3.332031 4.34375 3.25 4.5625 C 3.164062 4.789062 3.046875 4.984375 2.890625 5.140625 C 2.734375 5.296875 2.523438 5.375 2.265625 5.375 Z M 5.375 -2.125 C 5.894531 -2.125 6.382812 -2.253906 6.84375 -2.515625 C 7.300781 -2.773438 7.707031 -3.113281 8.0625 -3.53125 C 8.425781 -3.957031 8.707031 -4.421875 8.90625 -4.921875 C 9.113281 -5.429688 9.21875 -5.925781 9.21875 -6.40625 C 9.21875 -7.09375 8.976562 -7.585938 8.5 -7.890625 C 8.019531 -8.203125 7.453125 -8.359375 6.796875 -8.359375 C 6.546875 -8.359375 6.3125 -8.347656 6.09375 -8.328125 C 5.882812 -8.304688 5.6875 -8.253906 5.5 -8.171875 C 4.789062 -7.859375 4.34375 -7.515625 4.15625 -7.140625 C 3.96875 -6.765625 3.875 -6.332031 3.875 -5.84375 C 3.875 -5.632812 3.878906 -5.410156 3.890625 -5.171875 C 3.898438 -4.941406 3.90625 -4.695312 3.90625 -4.4375 L 3.90625 -2.9375 C 3.90625 -2.71875 3.988281 -2.546875 4.15625 -2.421875 C 4.320312 -2.304688 4.519531 -2.226562 4.75 -2.1875 C 4.988281 -2.144531 5.195312 -2.125 5.375 -2.125 Z M 5.375 -2.125 "/></g></g></g></svg>